# xmcd
#
# Track frame offsets:
#	150
#	11471
#	23735
#	30361
#	42073
#	54176
#	59934
#	72463
#	84182
#	97324
#	108557
#	115250
#	127668
#	140743
#	153556
#	163919
#	170339
#	180894
#	192923
#	200084
#	209453
#	222644
#	229293
#	239001
#	251924
#	259641
#	271252
#	282149
#	288975
#	301371
#	312845
#	326265
#
# Disc length: 4501 seconds
#
# Revision: 1
# Processed by: cddbd v1.5.2PL0 Copyright (c) Steve Scherf et al.
# Submitted via: audiograbber 1.83.01
#
DISCID=d8119320
DTITLE=Various Artist - The Complete Hit of the Week Recordings Vol. 4 [CD-2)
DYEAR=2011
DGENRE=Jazz
TTITLE0=Phil Spitalny's Music - Somebody Loves You
TTITLE1=Phil Spitalny's Music - One More Kiss, Then Goodnight
TTITLE2=Unknown - Frankie Takes Marge For A Ride [ad for Good Year "Air Wheel" 
TTITLE2=tires]
TTITLE3=Rudy Vallee and his Orchestra - By The Fireside
TTITLE4=Rudy Vallee and his Orchestra - Lovable
TTITLE5=The Mills Brothers - Crisco Presents The Mills Brothers
TTITLE6=Phil Spitalny's Music - Let's Have Another Cup O' Coffee
TTITLE7=Phil Spitalny's Music - Strangers
TTITLE8=Phil Spitalny's Music - Paradise
TTITLE9=Phil Spitalny's Music - Love, You Funny Thing!
TTITLE10=Unknown - You'll Like This Parade [ad for Deveaux Brush Co.]
TTITLE11=Morton Downey and Orchestra - Dream Sweetheart
TTITLE12=Morton Downey and Orchestra - Soft Lights And Sweet Music
TTITLE13=Morton Downey and Orchestra - My Mom
TTITLE14=Morton Downey and Orchestra - I'm So Alone With The Crowd
TTITLE15=Unknown - Here's a Substitute For And A Relief From The Present Discri
TTITLE15=minatory System Of Taxation in Iowa
TTITLE16=Ralph Kirbery and Orchestra - Between The Devil And The Deep Blue Sea
TTITLE17=Ralph Kirbery and Orchestra - Happy-Go-Lucky You And Broken Hearted Me
TTITLE18=Unknown - Important Information [ad for Chevrolet]
TTITLE19=Hit of the Week Orchestra - Sing A New Song
TTITLE20=Hit of the Week Orchestra - My Extraordinary Girl
TTITLE21=Amelia Earhart - From Amelia Earhart's International Broadcast
TTITLE22=Andy Sannella and his Orchestra - One Hour With You
TTITLE23=Andy Sannella and his Orchestra - I Beg Your Pardon, Mademoiselle
TTITLE24=Ted Husing - Ted Husing Tells "The Tale Of A Shirt" [ad for Soisette B
TTITLE24=roadcloths]
TTITLE25=Andy Sannella and his Orchestra - Lawd, You Made The Night Too Long
TTITLE26=Andy Sannella and his Orchestra - Sharing
TTITLE27=Unknown - What Kind Of Cough Is Serious? [ad for Pertussin]
TTITLE28=Phil Spitalny's Music - Lullaby Of The Leaves
TTITLE29=Phil Spitalny's Music - Betty Boop
TTITLE30=Phil Spitalny's Music - My Silent Love
TTITLE31=Phil Spitalny's Music - Hummin' To Myself
EXTD=
EXTT0=
EXTT1=
EXTT2=
EXTT3=
EXTT4=
EXTT5=
EXTT6=
EXTT7=
EXTT8=
EXTT9=
EXTT10=
EXTT11=
EXTT12=
EXTT13=
EXTT14=
EXTT15=
EXTT16=
EXTT17=
EXTT18=
EXTT19=
EXTT20=
EXTT21=
EXTT22=
EXTT23=
EXTT24=
EXTT25=
EXTT26=
EXTT27=
EXTT28=
EXTT29=
EXTT30=
EXTT31=
PLAYORDER=
